<svg xmlns="http://www.w3.org/2000/svg" xmlns:xlink="http://www.w3.org/1999/xlink" version="1.1" x="0px" y="0px" viewBox="0 0 100 100" enable-background="new 0 0 100 100" xml:space="preserve"><path d="M92.854,20.7l-7.541,22.31c-0.154,0.449-0.643,0.691-1.091,0.539L69.42,38.497c-0.216-0.074-0.39-0.229-0.491-0.437  c-0.103-0.205-0.117-0.438-0.044-0.657l0.002-0.003l7.54-22.306c0.074-0.22,0.227-0.395,0.434-0.496  c0.204-0.103,0.437-0.119,0.656-0.043l14.8,5.052C92.764,19.76,93.004,20.249,92.854,20.7z M64.569,36.064h2.453l7.329-21.677  c0.264-0.777,0.808-1.403,1.539-1.764c0.73-0.363,1.559-0.417,2.329-0.152l2.837,0.968v-1.798c0-0.474-0.383-0.862-0.856-0.862  H64.569c-0.474,0-0.858,0.388-0.858,0.862v23.563C63.711,35.678,64.096,36.064,64.569,36.064z M68.717,40.582  c-0.771-0.262-1.396-0.812-1.755-1.545c-0.12-0.248-0.204-0.505-0.255-0.77h-2.138c-1.681,0-3.05-1.375-3.05-3.062V16.407  c-8.033,2.922-9.144,3.328-9.343,3.382l0.092-0.017c-0.212,0.079-0.387,0.237-0.482,0.446c-0.099,0.207-0.108,0.443-0.029,0.659  l7.979,22.154c0.079,0.216,0.236,0.389,0.444,0.488c0.207,0.096,0.44,0.106,0.656,0.029l8.021-2.917  C68.772,40.599,68.717,40.582,68.717,40.582z M8.06,63.499l11.835-9.781c1.109-1.027,3.124-1.625,4.826-1.655  c0.426-0.027,0.853,0,1.192,0.057l13.452,2.424c0.88,0.171,2.158,0.914,2.385,2.053v0.628c-0.084,0.484-0.397,1.054-0.993,1.653  l-9.651,9.583c-2.184,2.083-4.143,2.966-6.385,2.795c-0.541-0.028-1.107-0.142-1.702-0.313L8.26,66.893  C6.415,66.379,6.754,64.612,8.06,63.499z M20.975,62.53c0.482,0.74,2.185,0.854,3.746,0.542c0.482-0.085,0.965-0.2,1.391-0.4  c1.759-0.656,3.292-2.225,2.044-3.42c-0.768-0.714-2.185-0.685-3.435-0.429c-0.795,0.199-1.504,0.429-1.988,0.656  C21.512,60.076,20.32,61.533,20.975,62.53z M27.445,92.903l-0.767-0.315l-3.546-1.424l-7.098-2.853h-0.027l-0.937-0.371  c-1.164-0.456-2.328-1.996-3.038-3.422c-0.084-0.199-0.141-0.341-0.227-0.514L6.869,71.571c-0.369-0.885-1.76-4.535,1.618-3.452  l3.546,1.027l3.975,1.084h0.027l6.188,1.74c0.311,0.084,0.624,0.199,0.909,0.285c1.785,0.54,2.808,1.056,3.546,2.023  c0.597,0.827,0.995,1.968,1.504,3.737l3.776,12.947c0.056,0.229,0.084,0.429,0.084,0.601v0.285  C31.929,93.702,28.978,93.529,27.445,92.903z M12.033,75.82c0.85,0.543,1.816,0.884,2.385,0.399  c0.964-0.826-0.056-2.481-1.078-3.736c-0.397-0.483-0.824-0.912-1.307-1.227c-0.794-0.57-1.674-0.827-2.355-0.37  c-1.051,0.685,0.144,2.909,0.938,3.792C10.928,75.021,11.466,75.478,12.033,75.82z M17.087,83.15  c-0.313-0.343-0.682-0.658-1.052-0.914c0,0,0,0-0.027,0c-0.796-0.571-1.619-0.885-2.271-0.429c-0.938,0.628,0.312,2.653,1.135,3.422  c0.285,0.258,0.712,0.628,1.137,0.913c0.027,0,0.027,0,0.027,0c0.795,0.542,1.73,0.913,2.299,0.459  C19.214,85.915,18.165,84.206,17.087,83.15z M23.133,79.584c0.965,0.541,2.042,0.826,2.694,0.284  c1.078-0.913-0.027-2.595-1.221-4.049c-0.427-0.514-0.937-0.97-1.474-1.253c-0.909-0.544-1.875-0.714-2.643-0.202  c-1.219,0.77,0.172,2.937,0.995,3.907C21.826,78.699,22.448,79.212,23.133,79.584z M27.842,86.857  c-0.312-0.255-0.708-0.57-1.163-0.828c-0.879-0.484-1.818-0.799-2.499-0.313c-1.077,0.685,0.284,2.737,1.109,3.564  c0.341,0.286,0.822,0.685,1.39,1.027c0.907,0.515,1.959,0.884,2.555,0.427C30.188,90.005,28.751,87.655,27.842,86.857z   M48.079,75.021v0.543c-0.027,1.911-0.682,3.537-2.242,5.417l-1.646,1.939l-2.215,2.652l-2.667,3.196l-2.1,2.48  c-0.2,0.257-0.397,0.486-0.598,0.627c-0.993,0.883-2.072,0.571-2.837-0.371c-0.426-0.542-0.796-1.227-1.022-2.081l-3.634-12.806  c-0.169-0.57-0.254-1.141-0.284-1.712v-0.483c0.058-1.482,0.682-2.996,2.045-4.393l2.896-2.824l2.837-2.821l2.697-2.683l2.214-2.195  c0.143-0.171,0.312-0.285,0.453-0.428c0.795-0.571,1.561-0.656,2.215-0.315c0.707,0.374,1.248,1.171,1.446,2.31l2.157,11.552  C47.965,73.479,48.079,74.279,48.079,75.021z M35.705,75.393c0.537-1.74,0.708-4.192-0.711-4.822  c-0.425-0.169-0.822-0.112-1.219,0.115c-0.965,0.515-1.789,1.94-2.072,2.825c-0.369,1.196-0.568,3.905,0.794,4.448  c0.425,0.141,0.853,0.085,1.278-0.058C34.598,77.502,35.335,76.533,35.705,75.393z M37.775,82.178  c-0.397-0.197-0.766-0.142-1.163,0.115c-0.794,0.543-1.477,1.826-1.789,2.652c-0.425,1.168-0.595,3.652,0.541,4.05  c0.426,0.115,0.851,0.03,1.248-0.227c0.682-0.399,1.278-1.285,1.675-2.339C38.911,84.747,39.025,82.808,37.775,82.178z   M40.302,72.083c-0.341-0.169-0.681-0.113-0.992,0.086c-0.852,0.484-1.534,1.938-1.846,2.822c-0.367,1.17-0.397,3.68,0.738,3.995  c0.368,0.086,0.766,0.027,1.107-0.173c0.711-0.425,1.333-1.338,1.701-2.48C41.551,74.621,41.581,72.653,40.302,72.083z   M41.977,68.918c0.795-0.37,1.42-1.426,1.761-2.681c0.481-1.74,0.255-3.737-0.937-4.221c-0.283-0.114-0.569-0.084-0.824,0.058  c-0.853,0.456-1.561,2.024-1.814,2.965c-0.343,1.198-0.229,3.765,0.936,4.021C41.411,69.117,41.693,69.06,41.977,68.918z   M45.271,73.424c-0.343-0.171-0.711-0.057-1.079,0.228c-0.711,0.571-1.42,1.825-1.646,2.566c-0.341,1.112-0.368,3.366,0.651,3.65  c0.341,0.085,0.682,0.03,0.995-0.143c0.68-0.37,1.27-1.247,1.589-2.28C46.264,75.876,46.264,73.938,45.271,73.424z M50,5v45.003  H5.214V5H50z M42.293,28.466c0-10.663-8.643-19.356-19.283-19.356c1.08,0.925,1.602,2.132,1.602,3.582  c0,1.046-0.08,1.812-0.76,2.656c-1.041,1.247-2.284,2.334-3.404,3.5c-2.003,2.092-4.004,4.226-6.008,6.319  c-0.96,1.007-1.521,1.971-1.521,3.379c0,2.535,2.083,4.59,4.566,4.59c2.683,0,6.166-3.624,8.449-3.624c1.16,0,2.16,0.967,2.16,2.132  c0,0.563-0.241,1.167-0.681,1.53l-7.406,6.238c-1.521,1.287-2.362,3.523-2.362,5.454h23.366v-2.092c0-1.512,0.561-3.12,0.762-4.652  C42.175,34.947,42.293,31.686,42.293,28.466z M25.013,18.487c-0.842,0-1.562,0.725-1.562,1.568c0,0.846,0.72,1.57,1.562,1.57  c0.882,0,1.602-0.724,1.602-1.57C26.614,19.212,25.895,18.487,25.013,18.487z M94.786,50.003v45.003H50V50.003H94.786z   M59.178,61.752c0,3.855,1.473,5.844,5.434,5.844h14.915c3.963,0,5.475-1.988,5.475-5.844v-5.335H79.84v5.298h-5.155v-5.298h-5.231  v5.298h-5.152v-5.298h-5.123V61.752z M63.872,69.389v14.367h16.55V69.389H63.872z M85.892,87.958l-5.394-2.222H63.911l-4.851,2.222  v2.023h26.831V87.958z"></path></svg>